<svg width="247" height="256" viewBox="0 0 247 256" fill="none" xmlns="http://www.w3.org/2000/svg">
<g clip-path="url(#clip0_20_3)">
<path d="M124.5 113H121C121.333 123 121.6 143.8 120 147C118.4 150.2 115 150.667 113.5 150.5C114 151.5 182.5 187 218 147C206.4 153.8 151.833 150.833 126 148.5L124.5 113Z" fill="#0A3622"/>
<path d="M28.3894 155.434L30.1083 159.56C30.3235 160.076 30.9381 160.307 31.4532 160.089C75.3621 141.492 100.535 175.483 147 187C191.028 197.913 209.596 179 214.278 166.313C214.587 165.475 213.679 164.79 212.909 165.241C200.554 172.482 192.7 175.238 178.5 176C137.712 175.99 100 146.5 65.5 146.5C50.6964 147.263 42.4762 148.758 28.9438 154.123C28.426 154.328 28.1751 154.92 28.3894 155.434Z" fill="#0A3622"/>
<path fill-rule="evenodd" clip-rule="evenodd" d="M150.769 31.4109C195.164 43.5572 227.792 84.1854 227.792 132.434C227.792 190.273 180.905 237.161 123.066 237.161C65.2269 237.161 18.3392 190.273 18.3392 132.434C18.3392 84.1854 50.9675 43.5572 95.3629 31.4109L106.307 10.5C46.2677 18.6747 0 70.1513 0 132.434C0 200.402 55.0984 255.5 123.066 255.5C191.033 255.5 246.131 200.402 246.131 132.434C246.131 70.1513 199.864 18.6747 139.824 10.5L150.769 31.4109ZM121.484 27.7195L122.529 25.7161L123.57 27.7089C123.402 27.7081 123.234 27.7078 123.066 27.7078C122.538 27.7078 122.01 27.7117 121.484 27.7195Z" fill="#0A3622"/>
<path d="M204 141L122.54 0L42.5 138.5H52.5937C56.8692 138.5 60.8217 136.225 62.9695 132.529L122.54 30L184.024 135.061C186.177 138.739 190.119 141 194.381 141H204Z" fill="#0A3622"/>
<mask id="mask0_20_3" style="mask-type:luminance" maskUnits="userSpaceOnUse" x="100" y="72" width="43" height="44">
<path d="M129.988 72.9707L100.471 85.9618L113.462 115.479L142.979 102.487L129.988 72.9707Z" fill="white"/>
</mask>
<g mask="url(#mask0_20_3)">
<path d="M122.227 76.3863C122.101 77.2844 114.423 86.7801 113.557 92.8997C112.693 99.0206 113.508 103.181 116.155 106.264C118.803 109.348 121.5 108.655 123 108.655C124.5 108.655 127.201 107.963 129.5 106.264C132.51 104.04 132.809 101 132.809 95.7836C132.809 91.1545 128.2 83.8168 126.193 81.0932C124.975 79.4393 123.65 77.867 122.227 76.3863ZM122.522 77.5162L123 108.655H121.848L122.522 77.5162Z" fill="#0A3622"/>
</g>
<mask id="mask1_20_3" style="mask-type:luminance" maskUnits="userSpaceOnUse" x="119" y="100" width="40" height="40">
<path d="M158.45 108.782L127.282 100.5L119 131.668L150.168 139.949L158.45 108.782Z" fill="white"/>
</mask>
<g mask="url(#mask1_20_3)">
<path d="M150.255 106.604C149.596 107.227 137.669 109.85 133.172 114.09C128.675 118.332 126.714 122.09 126.857 126.152C127 130.213 129.227 130.623 130.141 132.192C131.055 133.762 132.342 135.715 135.199 135.823C138.939 135.965 142.964 134.514 146.41 128.363C149.856 122.213 150.281 116.138 150.413 112.757C150.495 110.705 150.442 108.649 150.255 106.604ZM149.779 107.671L130.358 132.521L129.811 131.573L149.779 107.671Z" fill="#0A3622"/>
</g>
<mask id="mask2_20_3" style="mask-type:luminance" maskUnits="userSpaceOnUse" x="86" y="99" width="40" height="40">
<path d="M86.0002 107.782L117.168 99.5L125.45 130.668L94.2818 138.949L86.0002 107.782Z" fill="white"/>
</mask>
<g mask="url(#mask2_20_3)">
<path d="M94.1945 105.604C94.8536 106.227 106.78 108.85 111.277 113.09C115.774 117.332 117.735 121.09 117.592 125.152C117.449 129.213 115.222 129.623 114.309 131.192C113.394 132.762 112.107 134.715 109.251 134.823C105.511 134.965 101.485 133.514 98.0394 127.363C94.5936 121.213 94.1681 115.138 94.0358 111.757C93.9543 109.705 94.0073 107.649 94.1945 105.604ZM94.6698 106.671L114.092 131.521L114.638 130.573L94.6698 106.671Z" fill="black"/>
</g>
<mask id="mask3_20_3" style="mask-type:luminance" maskUnits="userSpaceOnUse" x="86" y="99" width="40" height="40">
<path d="M86.0002 107.782L117.168 99.5L125.45 130.668L94.2818 138.949L86.0002 107.782Z" fill="white"/>
</mask>
<g mask="url(#mask3_20_3)">
<path d="M94.1945 105.604C94.8536 106.227 106.78 108.85 111.277 113.09C115.774 117.332 117.735 121.09 117.592 125.152C117.449 129.213 115.222 129.623 114.309 131.192C113.394 132.762 112.107 134.715 109.251 134.823C105.511 134.965 101.485 133.514 98.0394 127.363C94.5936 121.213 94.1681 115.138 94.0358 111.757C93.9543 109.705 94.0073 107.649 94.1945 105.604ZM94.6698 106.671L114.092 131.521L114.638 130.573L94.6698 106.671Z" fill="#0A3622"/>
</g>
<path d="M147 205.342C114.5 201.149 83 162.342 36 169.342C53.4548 202.805 68.5 218.842 109 227.842C142.5 231.381 168.74 220.588 196 196.842C196 196.842 178 209.342 147 205.342Z" fill="url(#paint0_linear_20_3)"/>
</g>
<defs>
<linearGradient id="paint0_linear_20_3" x1="110" y1="175" x2="108.5" y2="231.5" gradientUnits="userSpaceOnUse">
<stop stop-color="#1294C6"/>
<stop offset="0.51127" stop-color="#1490C4"/>
<stop offset="1" stop-color="#2C4894"/>
</linearGradient>
<clipPath id="clip0_20_3">
<rect width="247" height="256" fill="white"/>
</clipPath>
</defs>
</svg>
